<?xml version="1.0" encoding="utf-8"?>
<!-- Generator: Adobe Illustrator 28.0.0, SVG Export Plug-In . SVG Version: 6.00 Build 0)  -->
<svg version="1.1" id="Layer_1" xmlns="http://www.w3.org/2000/svg" xmlns:xlink="http://www.w3.org/1999/xlink" x="0px" y="0px"
	 viewBox="0 0 288 288" style="enable-background:new 0 0 288 288;" xml:space="preserve">
<style type="text/css">
	.st0{display:none;fill:#F9BE22;}
	.st1{fill:url(#SVGID_1_);}
</style>
<rect x="-3.91" y="-3.91" class="st0" width="293.93" height="292.23"/>
<linearGradient id="SVGID_1_" gradientUnits="userSpaceOnUse" x1="44.2238" y1="213.7202" x2="268.4394" y2="77.4309">
	<stop  offset="0.2495" style="stop-color:#56BF92"/>
	<stop  offset="0.4761" style="stop-color:#7BCCC4"/>
	<stop  offset="0.6971" style="stop-color:#47C6E2"/>
	<stop  offset="0.8906" style="stop-color:#0E7490"/>
</linearGradient>
<path class="st1" d="M221.96,190.48c-11.2,0.79-24.82-0.29-31.79-10.25c-6.19-8.8-3.17-20.76,3.2-28.62
	c8.78-11.93,21.41-15.44,35.56-14.91c4.24-0.09,10.11,1.18,14.26,0.5c10.34-2.13-6.44-20.37-9.85-24.05
	c-3.94-4.22-7.32-9.05-10.9-13.79c-9.73-13.48-18.34-21.12-34.05-27.17c-7.23-2.98-14.64-5.77-22.34-7.17
	c-9.48-1.74-19.22-1.81-28.81-1.03c-15.38,1.27-30.11,5.27-44.1,11.54C80.88,81.15,68.7,86.91,56.07,91.66
	c-10.93,4.39-21.21,10.18-31.97,14.94c-3.09,1.38-6.39,2.72-8.96,4.87c-5.92,4.93-6.38,13.33,3.17,10.84
	c18.29-4.08,34.97-13.11,52.19-20.05c28.4-9.23,67.4-23.25,95.85-15.86c7.09,2.21,13.65,7.35,17.79,13.41
	c3.77,5.8,2.05,10.16-1.83,15.16c-3.46,4.4-9.6,10.63-13.42,16.77c-4.37,6.94-7.87,15.21-8.71,22.84c-1,22.8,18.89,44.2,45.51,49.4
	c17.65,3.46,35.6,0.8,53.14-2.22c6.15-0.99,11.13-4.54,13.29-10.59c0.76-1.76,1.57-4.75,0.85-6.23c-1-2-3.85-1.57-6.02-1.25
	c-14.72,3.18-29.8,5.93-44.81,6.79L221.96,190.48z"/>
<path class="st0" d="M203.9,95.76c0.96,3.89,5.59,4.95,7.34,3.72c1.75-1.23,1.31-4.88-1-8.17c-2.3-3.28-5.59-4.95-7.34-3.72
	S202.74,91.04,203.9,95.76z"/>
<path class="st0" d="M205.95,118.77c1.97,4.69,5.72,7.58,8.37,6.47c2.65-1.11,4.07-6.28,1.24-10.5c-3.01-4.48-7.74-7.94-10.39-6.83
	C202.52,109.02,203.98,114.08,205.95,118.77z"/>
<path class="st0" d="M219.37,105.15c-1.36,0.6-0.93,4.31,0.2,6.85c1.12,2.54,2.5,2.94,3.87,2.34c1.36-0.6,0.77-2.04-0.35-4.58
	C221.97,107.22,220.74,104.55,219.37,105.15z"/>
<g>
</g>
<g>
</g>
<g>
</g>
<g>
</g>
<g>
</g>
<g>
</g>
</svg>
